<svg width="128" height="128" viewBox="0 0 128 128" fill="none" xmlns="http://www.w3.org/2000/svg">
<rect width="128" height="128" rx="25" fill="#09090B"/>
<path d="M41.3669 81.3669L37.6433 74.9173L35.7157 71.5787L33.6472 67.996L31.3401 64L28.6535 59.3465L24 64L28.6535 68.6535L32.453 72.453L35.7157 75.7157L38.641 78.641L41.3669 81.3669Z" fill="#FAFAFA"/>
<path d="M53.0827 90.3568L46.6331 86.6331L43.2945 84.7055L39.7117 82.637L35.7157 80.3299L31.0623 77.6433L29.359 84L35.7157 85.7033L40.906 87.094L45.363 88.2883L49.359 89.359L53.0827 90.3568Z" fill="#FAFAFA"/>
<path d="M67.7237 92.2843H60.2763H56.4212H52.2843H47.6701H42.2967L44 98.641L50.3567 96.9377L55.547 95.547L60.004 94.3528L64 93.282L67.7237 92.2843Z" fill="#FAFAFA"/>
<path d="M81.367 86.633L74.9173 90.3567L71.5787 92.2843L67.996 94.3528L64 96.6599L59.3465 99.3465L64 104L68.6535 99.3465L72.453 95.547L75.7157 92.2843L78.641 89.359L81.367 86.633Z" fill="#FAFAFA"/>
<path d="M90.3567 74.9173L86.633 81.367L84.7055 84.7055L82.637 88.2882L80.3299 92.2843L77.6432 96.9377L84 98.641L85.7033 92.2843L87.094 87.094L88.2882 82.637L89.359 78.641L90.3567 74.9173Z" fill="#FAFAFA"/>
<path d="M92.2843 60.2763V67.7237V71.5788V75.7157V80.3299V85.7033L98.641 84L96.9377 77.6433L95.547 72.453L94.3528 67.996L93.282 64L92.2843 60.2763Z" fill="#FAFAFA"/>
<path d="M86.633 46.633L90.3567 53.0827L92.2843 56.4212L94.3528 60.004L96.6599 64L99.3465 68.6535L104 64L99.3465 59.3465L95.547 55.547L92.2843 52.2843L89.359 49.359L86.633 46.633Z" fill="#FAFAFA"/>
<path d="M74.9173 37.6433L81.367 41.367L84.7055 43.2945L88.2883 45.363L92.2843 47.6701L96.9377 50.3567L98.641 44L92.2843 42.2967L87.094 40.906L82.637 39.7118L78.641 38.641L74.9173 37.6433Z" fill="#FAFAFA"/>
<path d="M60.2763 35.7157H67.7237H71.5787H75.7157H80.3299H85.7033L84 29.359L77.6432 31.0623L72.453 32.453L67.996 33.6472L64 34.718L60.2763 35.7157Z" fill="#FAFAFA"/>
<path d="M46.6331 41.3669L53.0827 37.6432L56.4212 35.7157L60.004 33.6472L64 31.3401L68.6535 28.6535L64 24L59.3465 28.6535L55.547 32.453L52.2843 35.7157L49.359 38.641L46.6331 41.3669Z" fill="#FAFAFA"/>
<path d="M42.2967 35.7157L40.906 40.906L39.7117 45.363L38.641 49.359L37.6433 53.0827L41.3669 46.6331L43.2945 43.2945L45.363 39.7117L47.6701 35.7157L50.3567 31.0623L44 29.359L42.2967 35.7157Z" fill="#FAFAFA"/>
<path d="M35.7157 42.2967L29.359 44L31.0623 50.3567L32.453 55.547L33.6472 60.004L34.718 64L35.7157 67.7237V60.2763V56.4213V52.2843V47.6701V42.2967Z" fill="#FAFAFA"/>
</svg>
