<svg width="200" height="200" viewBox="0 0 200 200" fill="none" xmlns="http://www.w3.org/2000/svg">
<path d="M43.4173 143.417L34.1081 127.293L29.2893 118.947L24.1181 109.99L18.3503 100L11.6336 88.3664L0 100L11.6336 111.634L21.1325 121.132L29.2893 129.289L36.6025 136.603L43.4173 143.417Z" fill="#52525B"/>
<path d="M72.7067 165.892L56.5826 156.583L48.2362 151.764L39.2794 146.593L29.2893 140.825L17.6557 134.108L13.3974 150L29.2893 154.258L42.265 157.735L53.4074 160.721L63.3975 163.397L72.7067 165.892Z" fill="#52525B"/>
<path d="M109.309 170.711H90.6907H81.0531H70.7107H59.1752H45.7418L50 186.603L65.8918 182.344L78.8675 178.867L90.0099 175.882L99.9999 173.205L109.309 170.711Z" fill="#52525B"/>
<path d="M143.417 156.583L127.293 165.892L118.947 170.711L109.99 175.882L100 181.65L88.3663 188.366L100 200L111.634 188.366L121.132 178.868L129.289 170.711L136.603 163.397L143.417 156.583Z" fill="#52525B"/>
<path d="M165.892 127.293L156.583 143.417L151.764 151.764L146.593 160.721L140.825 170.711L134.108 182.344L150 186.603L154.258 170.711L157.735 157.735L160.721 146.593L163.397 136.603L165.892 127.293Z" fill="#52525B"/>
<path d="M170.711 90.6908V109.309V118.947V129.289V140.825V154.258L186.603 150L182.344 134.108L178.867 121.132L175.882 109.99L173.205 100L170.711 90.6908Z" fill="#52525B"/>
<path d="M156.583 56.5826L165.892 72.7067L170.711 81.0531L175.882 90.01L181.65 100L188.366 111.634L200 100L188.366 88.3663L178.867 78.8675L170.711 70.7107L163.397 63.3974L156.583 56.5826Z" fill="#52525B"/>
<path d="M127.293 34.1082L143.417 43.4174L151.764 48.2362L160.721 53.4074L170.711 59.1752L182.344 65.8919L186.603 50L170.711 45.7418L157.735 42.265L146.593 39.2794L136.603 36.6026L127.293 34.1082Z" fill="#52525B"/>
<path d="M90.6907 29.2893H109.309H118.947H129.289H140.825H154.258L150 13.3974L134.108 17.6557L121.132 21.1325L109.99 24.1181L99.9999 26.7949L90.6907 29.2893Z" fill="#52525B"/>
<path d="M56.5827 43.4173L72.7067 34.1081L81.0531 29.2893L90.0099 24.1181L100 18.3503L111.634 11.6336L100 0L88.3663 11.6337L78.8675 21.1325L70.7107 29.2893L63.3975 36.6025L56.5827 43.4173Z" fill="#52525B"/>
<path d="M45.7418 29.2893L42.265 42.265L39.2794 53.4074L36.6025 63.3975L34.1081 72.7067L43.4173 56.5827L48.2362 48.2362L53.4074 39.2794L59.1752 29.2893L65.8918 17.6557L50 13.3975L45.7418 29.2893Z" fill="#52525B"/>
<path d="M29.2893 45.7418L13.3974 50L17.6557 65.8919L21.1325 78.8675L24.1181 90.0099L26.7949 100L29.2893 109.309V90.6908V81.0531V70.7107V59.1752V45.7418Z" fill="#52525B"/>
</svg>
